<svg id="Capa_1" enable-background="new 0 0 512 512" height="512" viewBox="0 0 512 512" width="512" xmlns="http://www.w3.org/2000/svg"><path d="m452.58 386.166c23.7-37.715 37.42-82.335 37.42-130.166 0-135.31-109.69-245-245-245-130.052 0-236.417 101.336-244.488 229.352l50.958 145.814z" fill="#67e5ee"/><path d="m51.47 386.166 12.017 34.387c44.823 49.413 109.543 80.447 181.513 80.447 87.479 0 164.236-45.857 207.58-114.834z" fill="#74727f"/><path d="m175.652 386.165c66.882 0 76.104 89.934 23.092 110.471 14.98 2.863 30.442 4.364 46.256 4.364 87.479 0 164.236-45.857 207.58-114.835z" fill="#5f5e6a"/><path d="m141.261 329.572v-130.979c0-7.723-6.261-13.984-13.984-13.984s-13.984 6.26-13.984 13.984v130.979z" fill="#eb5793"/><path d="m127.277 184.609c-7.723 0-13.984 6.26-13.984 13.984v65.846c0-7.723 6.26-13.984 13.984-13.984 7.723 0 13.984 6.261 13.984 13.984v-65.846c0-7.723-6.261-13.984-13.984-13.984z" fill="#e7387f"/><path d="m1.058 278.722h22.222v-26.153c0-7.723-6.26-13.984-13.984-13.984-3.37 0-6.46 1.193-8.874 3.178-.27 4.712-.422 9.457-.422 14.237 0 7.663.37 15.239 1.058 22.722z" fill="#ef75a7"/><path d="m98.999 229.514c-2.992 0-5.843-1.738-7.12-4.654-1.721-3.93.069-8.511 4-10.233l56.565-24.774c3.929-1.721 8.512.07 10.233 4s-.069 8.511-4 10.233l-56.565 24.774c-1.015.443-2.073.654-3.113.654z" fill="#ef75a7"/><path d="m133.159 215.085c-3.373 0-6.589-1.96-8.029-5.248-1.236-2.823-.86-5.94.717-8.336l-29.969 13.126c-3.93 1.722-5.721 6.303-4 10.233 1.277 2.916 4.129 4.654 7.12 4.654 1.04 0 2.099-.21 3.113-.655l31.503-13.797c-.152.007-.304.023-.455.023z" fill="#eb5793"/><path d="m65.63 269.107h-65.28c.923 17.502 3.694 34.511 8.101 50.85h52.098.003 13.418v-42.509c.001-4.606-3.734-8.341-8.34-8.341z" fill="#eb5793"/><path d="m35.596 269.107h-35.246c.923 17.502 3.694 34.511 8.101 50.85h18.804v-42.509c0-4.606 3.735-8.341 8.341-8.341z" fill="#e7387f"/><path d="m198.541 160.772c-5.801 0-10.503 4.758-10.503 10.627v148.331h103.384v-144.291c0-5.876 2.605-11.129 6.699-14.667z" fill="#e7387f"/><path d="m211.555 160.772c5.801 0 10.503 4.758 10.503 10.627v148.331h69.363v-144.291c0-5.876 2.605-11.129 6.699-14.667z" fill="#e20a62"/><path d="m387.636 133.591v-23.438c0-9.5-7.773-17.274-17.274-17.274h-9.648c-9.501 0-17.274 7.773-17.274 17.274v23.438z" fill="#ffc743"/><path d="m376.587 94.065c-1.936-.755-4.03-1.186-6.225-1.186h-9.648c-9.501 0-17.274 7.773-17.274 17.273v23.438h22.098v-23.438c0-7.305 4.605-13.573 11.049-16.087z" fill="#fbb031"/><path d="m392.827 85.537c-5.376 0-9.155-5.365-7.294-10.443l4.276-11.671c1.476-4.029 5.938-6.097 9.967-4.622 4.029 1.476 6.098 5.938 4.622 9.967l-4.276 11.671c-1.153 3.147-4.128 5.098-7.295 5.098z" fill="#ffc743"/><path d="m400.239 97.129c-.736-4.227 2.093-8.251 6.32-8.987l12.245-2.133c4.23-.735 8.251 2.093 8.987 6.32s-2.093 8.251-6.32 8.987l-12.245 2.133c-4.25.738-8.254-2.113-8.987-6.32z" fill="#ffc743"/><path d="m330.954 80.439-4.276-11.671c-1.476-4.029.594-8.491 4.622-9.967 4.025-1.474 8.491.593 9.967 4.622l4.276 11.671c1.476 4.029-.594 8.491-4.622 9.967-4.037 1.478-8.493-.601-9.967-4.622z" fill="#ffc743"/><path d="m321.852 103.449-12.246-2.133c-4.227-.736-7.057-4.759-6.32-8.987.736-4.227 4.757-7.059 8.987-6.32l12.246 2.133c4.227.736 7.057 4.759 6.32 8.987-.732 4.199-4.73 7.06-8.987 6.32z" fill="#ffc743"/><path d="m72.914 326.504 5.954 16.144h210.482v-24.763h-228.801c5.52 0 10.456 3.44 12.365 8.619z" fill="#e7387f"/><path d="m289.35 342.648v-24.763h-67.291c.006.003 10.717 4.601 10.717 24.595v.168z" fill="#e20a62"/><path d="m268.364 282.21c-4.29 0-7.769-3.478-7.769-7.769v-32.974c0-4.291 3.478-7.769 7.769-7.769s7.769 3.478 7.769 7.769v32.974c0 4.29-3.479 7.769-7.769 7.769z" fill="#c6c6c1"/><path d="m268.325 305.084c-4.29 0-7.769-3.478-7.769-7.769v-14.674c0-4.29 3.478-7.769 7.769-7.769s7.769 3.478 7.769 7.769v14.674c0 4.291-3.478 7.769-7.769 7.769z" fill="#f7991e"/><path d="m24.253 238.434c1.277 2.916 4.129 4.654 7.12 4.654 1.04 0 2.098-.21 3.112-.655 3.931-1.722 5.721-6.303 4-10.233l-23.472-53.59c-.415-.948-1-1.768-1.699-2.447-2.52 7.314-4.699 14.786-6.527 22.396z" fill="#c6c6c1"/><path d="m63.343 229.087c-2.992 0-5.843-1.738-7.12-4.654l-23.472-53.59c-1.721-3.93.069-8.511 4-10.233 3.931-1.721 8.512.069 10.233 4l23.472 53.59c1.721 3.93-.069 8.511-4 10.233-1.015.443-2.073.654-3.113.654z" fill="#c6c6c1"/><path d="m95.312 215.085c-2.992 0-5.843-1.738-7.12-4.654l-23.472-53.591c-1.721-3.93.069-8.511 4-10.233 3.93-1.721 8.512.069 10.233 4l23.472 53.59c1.721 3.93-.069 8.511-4 10.233-1.014.444-2.072.655-3.113.655z" fill="#c6c6c1"/><g fill="#d6d6d0"><path d="m127.281 201.083c-2.992 0-5.843-1.738-7.12-4.654l-23.472-53.59c-1.721-3.93.069-8.511 4-10.233 3.929-1.721 8.512.069 10.233 4l23.472 53.59c1.721 3.93-.069 8.511-4 10.233-1.015.443-2.073.654-3.113.654z"/><path d="m159.25 187.081c-2.992 0-5.843-1.738-7.12-4.654l-23.472-53.591c-1.721-3.93.069-8.511 4-10.233 3.93-1.721 8.512.069 10.233 4l23.472 53.591c1.721 3.93-.069 8.511-4 10.233-1.015.444-2.073.654-3.113.654z"/><path d="m191.219 173.079c-2.992 0-5.843-1.738-7.12-4.654l-23.472-53.59c-1.721-3.93.069-8.511 4-10.233 3.93-1.721 8.512.069 10.233 4l23.472 53.59c1.721 3.93-.069 8.511-4 10.233-1.015.443-2.073.654-3.113.654z"/><path d="m223.188 159.077c-2.992 0-5.843-1.738-7.12-4.654l-23.472-53.591c-1.721-3.93.069-8.511 4-10.233 3.929-1.721 8.512.069 10.233 4l23.471 53.591c1.721 3.93-.069 8.511-4 10.233-1.014.444-2.072.654-3.112.654z"/><path d="m255.157 145.075c-2.992 0-5.843-1.738-7.12-4.654l-23.472-53.591c-1.721-3.93.069-8.511 4-10.233 3.931-1.721 8.512.069 10.233 4l23.472 53.591c1.721 3.93-.069 8.511-4 10.233-1.014.444-2.073.654-3.113.654z"/></g><path d="m291.422 400.623v-57.975h-214.626l21.381 57.975c2.519 6.829-.976 14.406-7.805 16.925h208.907c-6.857-2.503-10.381-10.082-7.857-16.925z" fill="#5f5e6a"/><path d="m291.422 400.623v-20.525h-200.814l7.57 20.525c2.519 6.829-.976 14.406-7.805 16.925h208.907c-6.858-2.503-10.382-10.082-7.858-16.925z" fill="#5f5e6a"/><path d="m291.422 400.623v-57.975h-214.626l21.381 57.975c2.519 6.829-.976 14.406-7.805 16.925h208.907c-6.857-2.503-10.381-10.082-7.857-16.925z" fill="#eb5793"/><path d="m299.279 417.548c-6.857-2.503-10.381-10.082-7.857-16.925v-57.975h-58.646v48.082s.263 21.002-5.552 26.817h72.055z" fill="#e7387f"/><path d="m291.422 400.623v-20.525h-200.814l7.57 20.525c2.519 6.829-.976 14.406-7.805 16.925h208.907c-6.858-2.503-10.382-10.082-7.858-16.925z" fill="#4b4a55"/><path d="m299.279 417.548c-6.857-2.503-10.381-10.082-7.857-16.925v-20.525h-58.646v10.633s.263 21.002-5.552 26.817z" fill="#363540"/><path d="m15.782 342.648c1.201 3.176 2.489 6.309 3.816 9.421l23.641 40.669h30.223v-50.09z"/><path d="m11.993 331.869c2.217 6.812 4.726 13.492 7.506 20.029l6.169 10.613c10.724 5.831 18.028 17.186 18.028 30.227 0 .253-.011.504-.018.756l6.095 10.485c4.338 5.721 8.897 11.265 13.714 16.575 4.301-8.346 6.746-17.797 6.746-27.815.001-32.697-25.887-59.453-58.24-60.87z"/><path d="m19.449 351.812c7.983 18.768 18.246 36.328 30.431 52.349 1.025-3.636 1.585-7.464 1.585-11.423 0-19.752-13.653-36.369-32.016-40.926z" fill="#eeefeb"/><path d="m72.914 326.504c-1.91-5.18-6.845-8.619-12.365-8.619-13.14 0-33.35 0-52.659 0 2.342 8.999 5.19 17.793 8.498 26.358h31.867c1.867 0 3.536 1.163 4.182 2.915l23.081 62.585c2.523 6.84 10.108 10.321 16.925 7.805 6.829-2.519 10.324-10.096 7.805-16.925z" fill="#ef75a7"/><path d="m238.936 271.765c-20.99 0-38.067-17.077-38.067-38.067s17.077-38.067 38.067-38.067 38.067 17.076 38.067 38.067-17.076 38.067-38.067 38.067zm0-60.596c-12.423 0-22.529 10.106-22.529 22.529s10.106 22.529 22.529 22.529 22.529-10.106 22.529-22.529c.001-12.423-10.106-22.529-22.529-22.529z" fill="#d6d6d0"/><path d="m238.936 250.455c-15.115 0-27.412-12.297-27.412-27.412s12.297-27.412 27.412-27.412 27.412 12.297 27.412 27.412-12.297 27.412-27.412 27.412zm0-39.286c-6.548 0-11.875 5.327-11.875 11.875 0 6.547 5.327 11.874 11.875 11.874 6.547 0 11.874-5.327 11.874-11.874.001-6.549-5.326-11.875-11.874-11.875z" fill="#eeefeb"/><path d="m238.936 218.16c-4.29 0-7.769-3.478-7.769-7.769v-14.761c0-4.291 3.478-7.769 7.769-7.769s7.769 3.478 7.769 7.769v14.761c0 4.291-3.478 7.769-7.769 7.769z" fill="#ef75a7"/><path d="m265.245 124.403-264.733 115.949c-.327 5.176-.512 10.39-.512 15.648 0 .512.016 1.019.019 1.53l271.459-118.895c3.93-1.722 5.721-6.303 4-10.233s-6.302-5.72-10.233-3.999z" fill="#eeefeb"/><path d="m116.935 189.36-116.423 50.992c-.327 5.176-.512 10.39-.512 15.648 0 .512.016 1.019.019 1.53l125.165-54.821c-11.882-1.726-8.737-11.953-8.249-13.349z" fill="#d6d6d0"/><path d="m241.774 70.812-226.193 99.069c-2.433 6.478-4.606 13.081-6.492 19.806l238.918-104.642c3.93-1.722 5.721-6.303 4-10.233-1.722-3.931-6.304-5.721-10.233-4z" fill="#eeefeb"/><path d="m99.806 149.955c-13.22-3.776-6.217-14.24-6.217-14.24l-78.007 34.166c-2.433 6.478-4.606 13.081-6.492 19.806z" fill="#d6d6d0"/><path d="m274.579 285.058h-12.43c-4.29 0-7.769-3.478-7.769-7.769s3.478-7.769 7.769-7.769h12.43c4.291 0 7.769 3.478 7.769 7.769s-3.478 7.769-7.769 7.769z" fill="#ffc743"/><path d="m316.025 342.648h128.443v50.09h-128.443z"/><path d="m435.958 158.27c-2.082-15.057-15.081-26.751-30.686-26.751h-83.848c-6.337 0-11.521 5.185-11.521 11.521v15.23z" fill="#363540"/><path d="m390.833 143.04c0-6.337 5.185-11.521 11.521-11.521h-80.93c-6.337 0-11.521 5.185-11.521 11.521v15.229h96.159c-8.41.001-15.229-6.817-15.229-15.229z"/><path d="m492.372 349.106c-4.456 0-8.08-3.461-8.08-7.714v-39.369c0-4.254 3.624-7.714 8.08-7.714h7.538v-23.326c0-5.471-.937-10.902-2.771-16.057l-28.527-80.2c-3.951-11.109-14.466-18.529-26.257-18.529h-133.934c-10.533 0-19.071 8.538-19.071 19.071v225.354l.786-.059 26.549-71.988c1.909-5.18 6.845-8.619 12.365-8.619h102.507c5.52 0 10.455 3.44 12.365 8.619l17.078 46.308h38.91v-25.778h-7.538z" fill="#eb5793"/><path d="m390.833 305.664v-135.53c0-6.385 4.089-11.846 9.771-13.936h-92.184c-10.533 0-19.071 8.538-19.071 19.071v225.354l.786-.059 26.549-71.988c1.91-5.18 6.845-8.619 12.365-8.619h72.647c-6.245-1.758-10.863-7.506-10.863-14.293z" fill="#e7387f"/><path d="m342.777 176.915h-27.063c-3.119 0-5.647 2.528-5.647 5.647v48.093c0 3.119 2.528 5.647 5.647 5.647h27.063c3.119 0 5.647-2.529 5.647-5.647v-48.093c.001-3.118-2.528-5.647-5.647-5.647z" fill="#21212b"/><path d="m476.924 259.874c-2.397-6.862-8.856-24.643-27.831-78.204-1.012-2.843-3.72-4.754-6.739-4.754h-66.846c-2.983 0-5.401 2.418-5.401 5.401v48.586c0 2.983 2.418 5.401 5.401 5.401h33.517c2.191 0 4.164 1.323 4.996 3.349l8.084 19.691c1.539 3.75 5.191 6.198 9.245 6.198h41.544c2.939-.001 5-2.894 4.03-5.668z" fill="#363540"/><path d="m375.508 176.915c-2.983 0-5.401 2.418-5.401 5.401v48.586c0 2.983 2.418 5.401 5.401 5.401h15.325v-59.387h-15.325z" fill="#21212b"/><path d="m392.595 269.882h-11.972c-4.291 0-7.769-3.478-7.769-7.769 0-4.29 3.478-7.769 7.769-7.769h11.972c4.291 0 7.769 3.478 7.769 7.769s-3.479 7.769-7.769 7.769z" fill="#ef75a7"/><path d="m380.303 453.675c-33.601 0-60.937-27.337-60.937-60.938s27.337-60.938 60.937-60.938c33.601 0 60.938 27.337 60.938 60.938s-27.337 60.938-60.938 60.938zm0-95.338c-18.968 0-34.4 15.432-34.4 34.4s15.432 34.4 34.4 34.4 34.4-15.432 34.4-34.4-15.432-34.4-34.4-34.4z" fill="#21212b"/><path d="m412.478 423.761c-.296-1.789-1.806-3.105-3.605-3.331-2.489-.312-4.225-1.16-5.445-2.247-6.113 5.561-14.23 8.954-23.126 8.954-18.968 0-34.4-15.432-34.4-34.4 0-9.769 4.1-18.592 10.661-24.86-1.37-1.822-1.563-4.124-1.39-6.012.179-1.956-1.019-3.743-2.885-4.355-10.168-3.334-8.869-13.068-8.842-13.258-14.621 11.141-24.081 28.726-24.081 48.485 0 33.601 27.337 60.938 60.937 60.938 18.308 0 34.744-8.127 45.924-20.95-10.425.767-13.108-5.094-13.748-8.964z"/><circle cx="380.303" cy="392.738" fill="#d6d6d0" r="34.4"/><path d="m403.428 418.183c-1.807-1.612-2.466-3.756-2.665-5.499-.208-1.824-1.619-3.25-3.431-3.547-27.769-4.565-31.911-26.129-32.451-34.654-.118-1.855-1.465-3.41-3.29-3.765-2.482-.483-4.052-1.54-5.028-2.84-6.561 6.268-10.661 15.092-10.661 24.86 0 18.968 15.432 34.4 34.4 34.4 8.896 0 17.013-3.394 23.126-8.955z" fill="#c6c6c1"/><path d="m380.303 434.906c-23.252 0-42.169-18.917-42.169-42.169s18.917-42.169 42.169-42.169 42.169 18.917 42.169 42.169c0 23.253-18.917 42.169-42.169 42.169zm0-68.8c-14.685 0-26.632 11.947-26.632 26.632 0 14.684 11.947 26.631 26.632 26.631s26.631-11.947 26.631-26.631c0-14.685-11.946-26.632-26.631-26.632z" fill="#eeefeb"/><path d="m411.154 421.444c-.628-.541-1.419-.905-2.281-1.013-6.178-.773-7.777-4.827-8.109-7.747-.085-.748-.381-1.423-.816-1.987-4.873 5.325-11.875 8.671-19.645 8.671-14.685 0-26.632-11.947-26.632-26.631 0-8.428 3.94-15.949 10.07-20.833-.566-.592-1.303-1.023-2.15-1.188-5.963-1.16-6.714-5.617-6.418-8.851.083-.911-.142-1.78-.584-2.516-9.998 7.718-16.456 19.81-16.456 33.388 0 23.252 18.917 42.169 42.169 42.169 12.171 0 23.148-5.188 30.852-13.462z" fill="#d6d6d0"/><path d="m500.812 293.273h-8.439c-5.014 0-9.117 3.938-9.117 8.75v39.368c0 4.813 4.102 8.75 9.117 8.75h8.439c5.014 0 9.117-3.938 9.117-8.75v-39.368c-.001-4.812-4.103-8.75-9.117-8.75z" fill="#ffc743"/><path d="m500.812 324.641h-8.439c-5.014 0-9.117-3.938-9.117-8.75v25.501c0 4.813 4.102 8.75 9.117 8.75h8.439c5.014 0 9.117-3.938 9.117-8.75v-25.501c-.001 4.813-4.103 8.75-9.117 8.75z" fill="#fbb031"/><path d="m499.91 372.812h-64.104l14.737 39.851h49.367c6.65 0 12.09-5.441 12.09-12.09v-15.67c0-6.65-5.441-12.091-12.09-12.091z" fill="#363540"/><path d="m483.256 400.573v-15.67c0-6.65 5.441-12.09 12.09-12.09h-59.54l14.737 39.851h44.803c-6.65-.001-12.09-5.441-12.09-12.091z" fill="#21212b"/><path d="m471.256 400.623-27.335-74.118c-1.91-5.18-6.845-8.619-12.365-8.619-27.606 0-86.425 0-102.507 0-5.52 0-10.455 3.439-12.365 8.619l-27.335 74.118c-2.592 7.027 1.184 14.847 8.409 17.131 6.765 2.14 13.994-1.702 16.45-8.359l22.953-62.236c.646-1.751 2.315-2.915 4.182-2.915h77.919c1.867 0 3.536 1.164 4.182 2.915l23.081 62.584c2.523 6.84 10.108 10.321 16.925 7.805 6.829-2.519 10.325-10.096 7.806-16.925z" fill="#ef75a7"/><path d="m341.343 344.243c-20.194-8.727-12.294-26.358-12.294-26.358-5.52 0-10.455 3.439-12.365 8.619l-27.335 74.118c-2.592 7.027 1.184 14.847 8.409 17.132 6.765 2.139 13.994-1.702 16.45-8.359l22.953-62.237c.646-1.751 2.315-2.915 4.182-2.915z" fill="#eb5793"/></svg>